# xmcd
#
# Track frame offsets:
#	182
#	25107
#	50007
#	70132
#	94782
#	116757
#	137682
#	161607
#	184332
#	211257
#	228282
#	250287
#	268257
#	288170
#	306882
#	333807
#
# Disc length: 4665
#
# Revision: 6
# Processed by: cddbd v1.5.1PL0 Copyright (c) Steve Scherf et al.
# Submitted via: CDex 1.50beta10
# Normalized: r5:DSETVAR1
#
DISCID=e7123710
DTITLE=Various Artist - Acid Groove Collection Vol. I
DYEAR=1996
DGENRE=Jazz
TTITLE0=Maysa - J.F.S
TTITLE1=Babyra Soul - I Belong To You
TTITLE2=Groove Collective - Lift Off
TTITLE3=Pat Metheny Group - The Girls Next Door
TTITLE4=Cunnie Williams - What You Won't Do For Love
TTITLE5=Funky Company - Rescue Me Flava Mix
TTITLE6=Vibrazioni Productions - The World (S-Tone Inc. Rmx)
TTITLE7=Yada Yada - Magic Time
TTITLE8=Free Flow - Get Closer
TTITLE9=Count Basic - This Is Your Life
TTITLE10=Quintetto X - Ocean Of Life
TTITLE11=Brazilian Love Affair - Demais
TTITLE12=Robin Gray - Trouble Girl (Souled Out Mix)
TTITLE13=S-Tone Inc. - Ainda Sonhar
TTITLE14=Bill Evans - The Sunday After
TTITLE15=Marmacomix - Let My People Go Free
EXTD=YEAR: 1996
EXTT0=
EXTT1=
EXTT2=
EXTT3=
EXTT4=
EXTT5=
EXTT6=
EXTT7=
EXTT8=
EXTT9=
EXTT10=
EXTT11=
EXTT12=
EXTT13=
EXTT14=
EXTT15=
PLAYORDER=
